<svg width="18" height="23" viewBox="0 0 18 23" fill="none" xmlns="http://www.w3.org/2000/svg">
<g opacity="0.24">
<path d="M10.0859 1.10839C10.8459 0.72032 11.6938 1.43447 11.4961 2.29589C10.9837 4.52814 11.5124 5.72962 12.8926 7.02343C12.9894 7.11366 14.1751 7.97823 14.6152 8.36718C16.1322 9.70776 17 11.3513 17 13.6055C17 18.3021 13.4134 22.0008 9.01172 22.001C4.60595 22.001 1 18.2997 1 13.6055C1.00002 11.0203 1.54787 9.42233 3.15527 6.76659C3.664 5.92654 4.89846 6.23264 4.99414 7.22265C5.08012 8.1122 5.34393 8.86964 5.72852 9.45019C5.47196 6.31306 6.80356 2.78466 10.0859 1.10839ZM9.31348 4.25683C8.64336 4.94161 7.10417 7.0696 7.97168 11.2803C8.1062 11.9331 7.63143 12.5498 6.99414 12.5498C5.72987 12.5496 4.47965 11.5365 3.71582 9.98534C3.42211 10.7137 3.00002 11.4717 3 13.6055C3 17.1322 5.7013 19.9043 9.01172 19.9043C12.3161 19.9042 15 17.1368 15 13.6055C15 12.0303 14.4247 10.9405 13.3262 9.96972C12.9887 9.67156 11.7682 8.78144 11.5586 8.58495C10.2338 7.34295 9.42356 6.02035 9.31348 4.25683Z" fill="black"/>
<path d="M10.0859 1.10839L9.85855 0.663088L9.85853 0.663097L10.0859 1.10839ZM11.4961 2.29589L11.0088 2.18402L11.0088 2.18403L11.4961 2.29589ZM12.8926 7.02343L12.5506 7.38822L12.5517 7.38917L12.8926 7.02343ZM14.6152 8.36718L14.9463 7.99251L14.9463 7.99249L14.6152 8.36718ZM17 13.6055L17.5 13.6055L17.5 13.6055L17 13.6055ZM9.01172 22.001L9.01172 22.501L9.01173 22.501L9.01172 22.001ZM1 13.6055L0.5 13.6055V13.6055H1ZM3.15527 6.76659L2.72758 6.50759L2.72752 6.50769L3.15527 6.76659ZM4.99414 7.22265L4.49646 7.27075L4.49646 7.27075L4.99414 7.22265ZM5.72852 9.45019L5.31168 9.72632L6.22685 9.40943L5.72852 9.45019ZM9.31348 4.25683L9.81251 4.22568L9.74246 3.10357L8.95612 3.90712L9.31348 4.25683ZM7.97168 11.2803L7.48197 11.3812L7.48197 11.3812L7.97168 11.2803ZM6.99414 12.5498L6.99406 13.0498H6.99414V12.5498ZM3.71582 9.98534L4.16438 9.76446L3.67034 8.76117L3.2521 9.79835L3.71582 9.98534ZM3 13.6055L2.5 13.6055V13.6055H3ZM9.01172 19.9043L9.01172 20.4043L9.01174 20.4043L9.01172 19.9043ZM15 13.6055L15.5 13.6055L15.5 13.6055L15 13.6055ZM13.3262 9.96972L13.6573 9.59506L13.6572 9.59503L13.3262 9.96972ZM11.5586 8.58495L11.2166 8.94972L11.2166 8.94974L11.5586 8.58495ZM10.0859 1.10839L10.3133 1.55369C10.6426 1.38556 11.1249 1.67794 11.0088 2.18402L11.4961 2.29589L11.9834 2.40776C12.2627 1.191 11.0492 0.0550761 9.85855 0.663088L10.0859 1.10839ZM11.4961 2.29589L11.0088 2.18403C10.7401 3.35458 10.7314 4.31094 11.0091 5.16599C11.2862 6.01957 11.8295 6.71227 12.5506 7.38821L12.8926 7.02343L13.2345 6.65865C12.5754 6.04078 12.1643 5.48583 11.9602 4.85716C11.7565 4.22996 11.7397 3.46945 11.9834 2.40775L11.4961 2.29589ZM12.8926 7.02343L12.5517 7.38917C12.6 7.43424 12.7224 7.52709 12.8386 7.61518C12.9747 7.71838 13.1388 7.84179 13.3228 7.9815C13.6904 8.26067 14.0808 8.56216 14.2842 8.74187L14.6152 8.36718L14.9463 7.99249C14.7095 7.78325 14.2869 7.45799 13.9275 7.18507C13.748 7.04875 13.57 6.91478 13.4428 6.81834C13.3772 6.76861 13.3231 6.72737 13.283 6.6962C13.2343 6.65843 13.2255 6.65024 13.2335 6.65769L12.8926 7.02343ZM14.6152 8.36718L14.2841 8.74185C15.7038 9.99639 16.5 11.5075 16.5 13.6055L17 13.6055L17.5 13.6055C17.5 11.1951 16.5607 9.41912 14.9463 7.99251L14.6152 8.36718ZM17 13.6055H16.5C16.5 18.0469 13.1168 21.5009 9.0117 21.501L9.01172 22.001L9.01173 22.501C13.71 22.5008 17.5 18.5574 17.5 13.6055H17ZM9.01172 22.001V21.501C4.90094 21.501 1.5 18.0428 1.5 13.6055H1H0.5C0.5 18.5566 4.31096 22.501 9.01172 22.501V22.001ZM1 13.6055L1.5 13.6055C1.50001 12.3518 1.63244 11.3594 1.95102 10.365C2.2716 9.36446 2.78773 8.33947 3.58302 7.02549L3.15527 6.76659L2.72752 6.50769C1.91541 7.84945 1.35391 8.95129 0.998709 10.0599C0.641517 11.1748 0.50001 12.274 0.5 13.6055L1 13.6055ZM3.15527 6.76659L3.58296 7.0256C3.82167 6.63142 4.44319 6.71953 4.49646 7.27075L4.99414 7.22265L5.49182 7.17455C5.35373 5.74575 3.50632 5.22166 2.72758 6.50759L3.15527 6.76659ZM4.99414 7.22265L4.49646 7.27075C4.58908 8.22902 4.8753 9.06759 5.31168 9.72632L5.72852 9.45019L6.14535 9.17405C5.81256 8.67169 5.57116 7.99537 5.49182 7.17454L4.99414 7.22265ZM5.72852 9.45019L6.22685 9.40943C5.9826 6.42276 7.25338 3.11637 10.3133 1.55368L10.0859 1.10839L9.85853 0.663097C6.35374 2.45295 4.96132 6.20335 5.23018 9.49094L5.72852 9.45019ZM9.31348 4.25683L8.95612 3.90712C8.18007 4.70015 6.57802 6.99362 7.48197 11.3812L7.97168 11.2803L8.46139 11.1794C7.63033 7.14558 9.10664 5.18307 9.67083 4.60654L9.31348 4.25683ZM7.97168 11.2803L7.48197 11.3812C7.55853 11.7527 7.28589 12.0498 6.99414 12.0498V12.5498V13.0498C7.97698 13.0498 8.65387 12.1135 8.46139 11.1794L7.97168 11.2803ZM6.99414 12.5498L6.99422 12.0498C6.0002 12.0496 4.88631 11.2305 4.16438 9.76446L3.71582 9.98534L3.26726 10.2062C4.07299 11.8425 5.45954 13.0496 6.99406 13.0498L6.99414 12.5498ZM3.71582 9.98534L3.2521 9.79835C3.1163 10.1351 2.91678 10.5542 2.76385 11.1426C2.60898 11.7385 2.50001 12.5047 2.5 13.6055L3 13.6055L3.5 13.6055C3.50001 12.5724 3.6021 11.8928 3.7317 11.3942C3.86325 10.888 4.02163 10.5639 4.17954 10.1723L3.71582 9.98534ZM3 13.6055H2.5C2.5 17.3891 5.40637 20.4043 9.01172 20.4043V19.9043V19.4043C5.99622 19.4043 3.5 16.8752 3.5 13.6055H3ZM9.01172 19.9043L9.01174 20.4043C12.6129 20.4042 15.5 17.3918 15.5 13.6055H15H14.5C14.5 16.8818 12.0192 19.4042 9.0117 19.4043L9.01172 19.9043ZM15 13.6055L15.5 13.6055C15.5 11.8721 14.8516 10.6505 13.6573 9.59506L13.3262 9.96972L12.9951 10.3444C13.9978 11.2305 14.5 12.1884 14.5 13.6055L15 13.6055ZM13.3262 9.96972L13.6572 9.59503C13.471 9.43048 13.0616 9.11875 12.6973 8.84138C12.3059 8.54338 11.9808 8.29542 11.9005 8.22017L11.5586 8.58495L11.2166 8.94974C11.346 9.07097 11.736 9.36631 12.0916 9.63704C12.4743 9.92839 12.8439 10.2108 12.9951 10.3444L13.3262 9.96972ZM11.5586 8.58495L11.9006 8.22019C10.6375 7.03609 9.91234 5.82501 9.81251 4.22568L9.31348 4.25683L8.81445 4.28798C8.93478 6.2157 9.83005 7.6498 11.2166 8.94972L11.5586 8.58495Z" fill="black"/>
</g>
</svg>
